<?xml version="1.0" encoding="UTF-8"?>
<svg width="32" height="32" viewBox="0 0 32 32" fill="none" xmlns="http://www.w3.org/2000/svg">
  <!-- Background -->
  <rect width="32" height="32" rx="8" fill="#0F172A"/>
  
  <!-- Letters VB -->
  <path d="M8 8L13 24H15L20 8H17.5L14 20L10.5 8H8Z" fill="white"/>
  <path d="M21 8C21.5 8 22.5 8.2 23.5 9C24.5 9.8 25 11 25 12.5C25 14 24.5 15.2 23.5 16C22.5 16.8 21.5 17 21 17H19V24H16.5V8H21ZM19 14.5H21C21.8 14.5 22.5 14 22.5 12.5C22.5 11 21.8 10.5 21 10.5H19V14.5Z" fill="white"/>
</svg> 